# xmcd
#
# Track frame offsets:
#	150
#	18507
#	48517
#	60587
#	84347
#	104925
#	129147
#	149540
#	171360
#	193795
#	233435
#	253595
#
# Disc length: 3964 seconds
# Revision: 4
# Processed by: cddbd v1.5.2PL0 Copyright (c) Steve Scherf et al.
# Submitted via: dBpowerAMP V12.0
#
DISCID=a40f7a0c
DTITLE=Duke Robillard - New Blues For Modern Man
DYEAR=1999
DGENRE=Blues
TTITLE0=Jumpin' Rockin' Rhythm
TTITLE1=Pony Blues
TTITLE2=Don't Fool With my Love
TTITLE3=Addiction
TTITLE4=Fishnet
TTITLE5=Good Man
TTITLE6=I Don't Want to Say Best Wishes
TTITLE7=Hurt me
TTITLE8=You're The Only One
TTITLE9=Love Sick
TTITLE10=How Long Baby
TTITLE11=Big Bottom Blues
EXTD=
EXTT0=
EXTT1=
EXTT2=
EXTT3=
EXTT4=
EXTT5=
EXTT6=
EXTT7=
EXTT8=
EXTT9=
EXTT10=
EXTT11=
PLAYORDER=
